<?xml version="1.0" standalone="no"?>
<!DOCTYPE svg PUBLIC "-//W3C//DTD SVG 20010904//EN"
 "http://www.w3.org/TR/2001/REC-SVG-20010904/DTD/svg10.dtd">
<svg version="1.0" xmlns="http://www.w3.org/2000/svg"
 width="700.000000pt" height="700.000000pt" viewBox="0 0 700.000000 700.000000"
 preserveAspectRatio="xMidYMid meet">
<metadata>
Created by potrace 1.14, written by Peter Selinger 2001-2017
</metadata>
<g transform="translate(0.000000,700.000000) scale(0.100000,-0.100000)"
fill="#000000" stroke="none">
<path d="M1463 6118 c-3 -7 -7 -954 -3 -1138 l0 -25 257 2 c142 1 274 2 293 3
l35 0 -2 558 c-1 306 -2 568 -2 582 l-1 25 -286 0 c-157 1 -288 -3 -291 -7z"/>
<path d="M2629 6125 c-1 0 -2 -262 -3 -582 l-1 -583 22 -1 c13 0 133 0 268 0
135 0 256 0 270 0 l25 1 -2 583 -3 582 -287 0 c-159 0 -289 0 -289 0z"/>
<path d="M3794 6121 c-2 -2 -4 -265 -4 -583 l0 -578 38 -1 c54 0 493 0 522 0
l25 1 0 582 0 583 -288 0 c-159 0 -290 -2 -293 -4z"/>
<path d="M881 4370 c-4 -3 -7 -790 -6 -1750 l0 -1745 2030 -1 c1117 0 2035 2
2042 4 8 2 11 183 12 710 0 389 0 716 0 727 1 20 8 20 584 20 l582 0 0 1020 0
1020 -2618 0 c-1441 0 -2622 -2 -2626 -5z m3494 -1745 l0 -1160 -1457 -3
-1458 -2 0 97 c-1 113 -1 1952 0 2121 l0 112 1457 -2 1458 -3 0 -1160z m1165
728 l0 -438 -285 1 c-157 0 -288 3 -291 7 -4 4 -8 745 -5 850 1 16 22 17 291
17 l290 0 0 -437z"/>
</g>
</svg>
